# xmcd CD database file
#
# Track frame offsets:
#	150
#	21059
#	41968
#	64270
#	81000
#	101770
#	115435
#	131329
#	146944
#	166739
#	182911
#
# Disc length: 2983 seconds
#
# Revision: 1
# Processed by: cddbd v1.5.2PL0 Copyright (c) Steve Scherf et al.
# Submitted via: jetAudio 7
#
DISCID=9c0ba50b
DTITLE=Hevia - Tierra De Nadir
DYEAR=1999
DGENRE=World
TTITLE0=Busindre Reel
TTITLE1=Naves
TTITLE2=Si La Nieve
TTITLE3=Gaviotes
TTITLE4=El Garrotín
TTITLE5=El Tamu
TTITLE6=La Línea Trazada
TTITLE7=Llaciana
TTITLE8=Sobrepena
TTITLE9=Barganaz
TTITLE10=Añada
EXTD=
EXTT0=
EXTT1=
EXTT2=
EXTT3=
EXTT4=
EXTT5=
EXTT6=
EXTT7=
EXTT8=
EXTT9=
EXTT10=
PLAYORDER=
